# xmcd CD database file
#
# Track frame offsets:
#	150
#	24625
#	42377
#	64455
#	79955
#	98480
#	116840
#	154927
#	163580
#	193609
#	213277
#	229757
#	267220
#	274935
#
# Disc length: 4041 seconds
#
# Revision: 0
# Processed by: cddbd v1.5PL3 Copyright (c) Steve Scherf et al.
# Submitted via: CDex 1.50
#
DISCID=c60fc70e
DTITLE=豊田道倫 - 人体実験
DYEAR=2003
DGENRE=Rock
TTITLE0=人体実験
TTITLE1=この夜
TTITLE2=ドライブ
TTITLE3=コーヒーとマーマレイドティー
TTITLE4=大人になれば
TTITLE5=つめたい弁当
TTITLE6=彼
TTITLE7=東京で何してんねん
TTITLE8=DOG DREAM
TTITLE9=日本に生まれて良かった
TTITLE10=夜のラヴ
TTITLE11=32
TTITLE12=逢いたい...
TTITLE13=ロボットの女
EXTD=YEAR: 2003
EXTT0=
EXTT1=
EXTT2=
EXTT3=
EXTT4=
EXTT5=
EXTT6=
EXTT7=
EXTT8=
EXTT9=
EXTT10=
EXTT11=
EXTT12=
EXTT13=
PLAYORDER=
